STARTFONT 2.1
FONT -Adobe-Palatino-Bold-I-Normal--11-80-100-100-P-59-ISO8859-1
SIZE 8 100 100
FONTBOUNDINGBOX 16 11 -2 -3

STARTPROPERTIES 26
_DEC_DEVICE_FONTNAMES "PS=Palatino-BoldItalic"
FONTNAME_REGISTRY ""
FAMILY_NAME "Palatino"
FOUNDRY "Adobe"
WEIGHT_NAME "Bold"
SLANT "R"
SETWIDTH_NAME "Normal"
ADD_STYLE_NAME ""
PIXEL_SIZE 11
POINT_SIZE 80
RESOLUTION_X 100
RESOLUTION_Y 100
SPACING "P"
AVERAGE_WIDTH 59
CHARSET_REGISTRY "ISO8859"
CHARSET_ENCODING "1"
CHARSET_COLLECTIONS "ASCII ISO8859-1 ADOBE-STANDARD"
FULL_NAME "Palatino Bold Italic"
COPYRIGHT "Copyright (c) 1991 Adobe Systems, Inc."
CAP_HEIGHT 7
X_HEIGHT 5
WEIGHT 10
QUAD_WIDTH 7
DEFAULT_CHAR 0
FONT_DESCENT 3
FONT_ASCENT 8
ENDPROPERTIES

CHARS 190

STARTCHAR space
ENCODING 32
SWIDTH 250 0
DWIDTH 3 0
BBX 1 1 0 0
BITMAP
00
ENDCHAR

STARTCHAR exclam
ENCODING 33
SWIDTH 333 0
DWIDTH 4 0
BBX 3 7 1 0
BITMAP
60
60
60
40
40
00
C0
ENDCHAR

STARTCHAR quotedbl
ENCODING 34
SWIDTH 500 0
DWIDTH 5 0
BBX 4 3 2 4
BITMAP
50
50
A0
ENDCHAR

STARTCHAR numbersign
ENCODING 35
SWIDTH 500 0
DWIDTH 5 0
BBX 7 7 0 0
BITMAP
14
14
7E
28
FC
50
50
ENDCHAR

STARTCHAR dollar
ENCODING 36
SWIDTH 500 0
DWIDTH 5 0
BBX 7 9 0 -1
BITMAP
02
1C
2E
70
38
1C
E8
70
80
ENDCHAR

STARTCHAR percent
ENCODING 37
SWIDTH 889 0
DWIDTH 8 0
BBX 8 7 1 0
BITMAP
1B
2E
38
08
3C
54
98
ENDCHAR

STARTCHAR ampersand
ENCODING 38
SWIDTH 833 0
DWIDTH 9 0
BBX 8 7 1 0
BITMAP
1C
34
60
31
CF
CC
78
ENDCHAR

STARTCHAR quoteright
ENCODING 39
SWIDTH 278 0
DWIDTH 3 0
BBX 3 3 2 4
BITMAP
60
60
C0
ENDCHAR

STARTCHAR parenleft
ENCODING 40
SWIDTH 333 0
DWIDTH 5 0
BBX 3 10 3 -2
BITMAP
20
40
40
80
80
80
80
80
40
40
ENDCHAR

STARTCHAR parenright
ENCODING 41
SWIDTH 333 0
DWIDTH 5 0
BBX 3 10 1 -2
BITMAP
40
40
20
20
20
20
20
40
40
80
ENDCHAR

STARTCHAR asterisk
ENCODING 42
SWIDTH 444 0
DWIDTH 6 0
BBX 4 4 3 3
BITMAP
90
60
60
90
ENDCHAR

STARTCHAR plus
ENCODING 43
SWIDTH 606 0
DWIDTH 6 0
BBX 5 5 1 0
BITMAP
20
20
F8
20
20
ENDCHAR

STARTCHAR comma
ENCODING 44
SWIDTH 250 0
DWIDTH 3 0
BBX 3 2 -1 -1
BITMAP
60
C0
ENDCHAR

STARTCHAR minus
ENCODING 45
SWIDTH 606 0
DWIDTH 6 0
BBX 5 1 1 2
BITMAP
F8
ENDCHAR

STARTCHAR period
ENCODING 46
SWIDTH 250 0
DWIDTH 3 0
BBX 2 1 0 0
BITMAP
C0
ENDCHAR

STARTCHAR slash
ENCODING 47
SWIDTH 315 0
DWIDTH 4 0
BBX 7 7 -1 0
BITMAP
02
04
08
10
20
40
80
ENDCHAR

STARTCHAR zero
ENCODING 48
SWIDTH 500 0
DWIDTH 5 0
BBX 7 7 0 0
BITMAP
1C
36
66
6C
CC
D8
70
ENDCHAR

STARTCHAR one
ENCODING 49
SWIDTH 500 0
DWIDTH 5 0
BBX 5 7 1 0
BITMAP
18
78
30
30
60
60
F0
ENDCHAR

STARTCHAR two
ENCODING 50
SWIDTH 500 0
DWIDTH 5 0
BBX 7 7 0 0
BITMAP
1C
36
0C
18
30
C0
F8
ENDCHAR

STARTCHAR three
ENCODING 51
SWIDTH 500 0
DWIDTH 5 0
BBX 7 7 0 0
BITMAP
1C
36
0C
38
0C
D8
70
ENDCHAR

STARTCHAR four
ENCODING 52
SWIDTH 500 0
DWIDTH 5 0
BBX 5 7 1 0
BITMAP
18
38
70
B0
F8
60
F0
ENDCHAR

STARTCHAR five
ENCODING 53
SWIDTH 500 0
DWIDTH 5 0
BBX 7 7 0 0
BITMAP
1E
10
38
0C
0C
D8
70
ENDCHAR

STARTCHAR six
ENCODING 54
SWIDTH 500 0
DWIDTH 5 0
BBX 7 7 0 0
BITMAP
06
0C
30
78
CC
D8
70
ENDCHAR

STARTCHAR seven
ENCODING 55
SWIDTH 500 0
DWIDTH 5 0
BBX 6 7 1 0
BITMAP
7C
0C
18
30
30
C0
C0
ENDCHAR

STARTCHAR eight
ENCODING 56
SWIDTH 500 0
DWIDTH 5 0
BBX 7 7 0 0
BITMAP
1C
32
74
38
5C
98
70
ENDCHAR

STARTCHAR nine
ENCODING 57
SWIDTH 500 0
DWIDTH 5 0
BBX 6 7 1 0
BITMAP
38
6C
CC
78
18
30
C0
ENDCHAR

STARTCHAR colon
ENCODING 58
SWIDTH 250 0
DWIDTH 3 0
BBX 3 5 0 0
BITMAP
60
00
00
00
C0
ENDCHAR

STARTCHAR semicolon
ENCODING 59
SWIDTH 250 0
DWIDTH 3 0
BBX 4 6 -1 -1
BITMAP
30
00
00
00
60
C0
ENDCHAR

STARTCHAR less
ENCODING 60
SWIDTH 606 0
DWIDTH 6 0
BBX 4 5 2 0
BITMAP
30
60
C0
60
30
ENDCHAR

STARTCHAR equal
ENCODING 61
SWIDTH 606 0
DWIDTH 6 0
BBX 5 3 1 1
BITMAP
F8
00
F8
ENDCHAR

STARTCHAR greater
ENCODING 62
SWIDTH 606 0
DWIDTH 6 0
BBX 4 5 2 0
BITMAP
C0
60
30
60
C0
ENDCHAR

STARTCHAR question
ENCODING 63
SWIDTH 444 0
DWIDTH 5 0
BBX 6 7 1 0
BITMAP
18
2C
18
30
20
00
C0
ENDCHAR

STARTCHAR at
ENCODING 64
SWIDTH 833 0
DWIDTH 9 0
BBX 8 7 1 0
BITMAP
3E
41
9D
AD
B6
82
7C
ENDCHAR

STARTCHAR A
ENCODING 65
SWIDTH 722 0
DWIDTH 7 0
BBX 14 7 -1 0
BITMAP
0600
0E00
0E00
1600
3E00
4600
EF00
ENDCHAR

STARTCHAR B
ENCODING 66
SWIDTH 667 0
DWIDTH 8 0
BBX 8 7 0 0
BITMAP
3E
1B
13
3C
36
66
FC
ENDCHAR

STARTCHAR C
ENCODING 67
SWIDTH 685 0
DWIDTH 7 0
BBX 7 7 1 0
BITMAP
3E
62
C0
C0
C0
C4
78
ENDCHAR

STARTCHAR D
ENCODING 68
SWIDTH 778 0
DWIDTH 8 0
BBX 9 7 0 0
BITMAP
3F00
1980
1180
3300
3300
6600
FC00
ENDCHAR

STARTCHAR E
ENCODING 69
SWIDTH 611 0
DWIDTH 7 0
BBX 8 7 0 0
BITMAP
3F
19
10
3C
30
64
FC
ENDCHAR

STARTCHAR F
ENCODING 70
SWIDTH 556 0
DWIDTH 6 0
BBX 8 7 0 0
BITMAP
3F
19
10
3C
30
60
F0
ENDCHAR

STARTCHAR G
ENCODING 71
SWIDTH 778 0
DWIDTH 7 0
BBX 7 7 1 0
BITMAP
3E
62
C0
C0
CE
C4
78
ENDCHAR

STARTCHAR H
ENCODING 72
SWIDTH 778 0
DWIDTH 8 0
BBX 10 7 0 0
BITMAP
3BC0
1980
3300
3F00
3300
6600
EF00
ENDCHAR

STARTCHAR I
ENCODING 73
SWIDTH 389 0
DWIDTH 4 0
BBX 6 7 0 0
BITMAP
3C
18
30
30
30
60
F0
ENDCHAR

STARTCHAR J
ENCODING 74
SWIDTH 389 0
DWIDTH 4 0
BBX 7 9 -1 -2
BITMAP
1E
0C
18
18
18
30
30
60
80
ENDCHAR

STARTCHAR K
ENCODING 75
SWIDTH 722 0
DWIDTH 8 0
BBX 9 7 0 0
BITMAP
3D80
1B00
1C00
3C00
3600
6600
F700
ENDCHAR

STARTCHAR L
ENCODING 76
SWIDTH 611 0
DWIDTH 6 0
BBX 6 7 0 0
BITMAP
3C
18
30
30
30
64
FC
ENDCHAR

STARTCHAR M
ENCODING 77
SWIDTH 944 0
DWIDTH 11 0
BBX 13 7 0 0
BITMAP
3838
1870
38E0
2D60
2E60
4EC0
ECE0
ENDCHAR

STARTCHAR N
ENCODING 78
SWIDTH 778 0
DWIDTH 8 0
BBX 10 7 0 0
BITMAP
39C0
1880
3D00
2D00
2F00
4E00
E600
ENDCHAR

STARTCHAR O
ENCODING 79
SWIDTH 833 0
DWIDTH 8 0
BBX 8 7 1 0
BITMAP
1E
63
63
C6
C6
CC
78
ENDCHAR

STARTCHAR P
ENCODING 80
SWIDTH 667 0
DWIDTH 7 0
BBX 8 7 0 0
BITMAP
3E
1B
33
3E
30
60
F0
ENDCHAR

STARTCHAR Q
ENCODING 81
SWIDTH 833 0
DWIDTH 8 0
BBX 9 9 0 -2
BITMAP
0F00
3180
3180
6300
6300
4600
7C00
6600
DC00
ENDCHAR

STARTCHAR R
ENCODING 82
SWIDTH 722 0
DWIDTH 7 0
BBX 8 7 0 0
BITMAP
3E
1B
33
3C
36
6C
EE
ENDCHAR

STARTCHAR S
ENCODING 83
SWIDTH 556 0
DWIDTH 7 0
BBX 8 7 0 0
BITMAP
0F
19
38
1C
0E
CC
78
ENDCHAR

STARTCHAR T
ENCODING 84
SWIDTH 611 0
DWIDTH 6 0
BBX 7 7 1 0
BITMAP
7E
5A
10
30
30
60
F0
ENDCHAR

STARTCHAR U
ENCODING 85
SWIDTH 778 0
DWIDTH 8 0
BBX 7 7 2 0
BITMAP
EE
66
CC
CC
CC
D8
6C
ENDCHAR

STARTCHAR V
ENCODING 86
SWIDTH 667 0
DWIDTH 7 0
BBX 8 7 1 0
BITMAP
F7
62
64
68
78
70
60
ENDCHAR

STARTCHAR W
ENCODING 87
SWIDTH 1000 0
DWIDTH 10 0
BBX 12 7 1 0
BITMAP
F6F0
6660
6640
6E80
7780
7700
6600
ENDCHAR

STARTCHAR X
ENCODING 88
SWIDTH 722 0
DWIDTH 8 0
BBX 10 7 -1 0
BITMAP
1CC0
0D80
0E00
0C00
1E00
6600
C700
ENDCHAR

STARTCHAR Y
ENCODING 89
SWIDTH 611 0
DWIDTH 8 0
BBX 8 7 2 0
BITMAP
E3
64
68
30
30
60
F0
ENDCHAR

STARTCHAR Z
ENCODING 90
SWIDTH 667 0
DWIDTH 6 0
BBX 8 7 0 0
BITMAP
1F
13
0C
18
30
C4
FC
ENDCHAR

STARTCHAR bracketleft
ENCODING 91
SWIDTH 333 0
DWIDTH 4 0
BBX 5 9 1 -1
BITMAP
18
20
20
40
40
40
80
80
C0
ENDCHAR

STARTCHAR backslash
ENCODING 92
SWIDTH 606 0
DWIDTH 6 0
BBX 2 7 3 0
BITMAP
80
80
80
C0
40
40
40
ENDCHAR

STARTCHAR bracketright
ENCODING 93
SWIDTH 333 0
DWIDTH 4 0
BBX 5 9 0 -1
BITMAP
18
08
08
10
10
10
20
20
C0
ENDCHAR

STARTCHAR asciicircum
ENCODING 94
SWIDTH 606 0
DWIDTH 6 0
BBX 5 3 2 4
BITMAP
20
50
D8
ENDCHAR

STARTCHAR underscore
ENCODING 95
SWIDTH 500 0
DWIDTH 5 0
BBX 5 1 -1 -2
BITMAP
F8
ENDCHAR

STARTCHAR quoteleft
ENCODING 96
SWIDTH 278 0
DWIDTH 3 0
BBX 3 3 1 4
BITMAP
60
C0
C0
ENDCHAR

STARTCHAR a
ENCODING 97
SWIDTH 556 0
DWIDTH 6 0
BBX 6 5 0 0
BITMAP
1C
6C
CC
D8
6C
ENDCHAR

STARTCHAR b
ENCODING 98
SWIDTH 537 0
DWIDTH 5 0
BBX 6 7 0 0
BITMAP
70
30
78
6C
6C
C8
F0
ENDCHAR

STARTCHAR c
ENCODING 99
SWIDTH 444 0
DWIDTH 5 0
BBX 5 5 0 0
BITMAP
38
68
40
D0
E0
ENDCHAR

STARTCHAR d
ENCODING 100
SWIDTH 556 0
DWIDTH 6 0
BBX 8 7 0 0
BITMAP
07
06
3C
6C
CC
D8
68
ENDCHAR

STARTCHAR e
ENCODING 101
SWIDTH 444 0
DWIDTH 5 0
BBX 5 5 0 0
BITMAP
38
68
70
C0
E0
ENDCHAR

STARTCHAR f
ENCODING 102
SWIDTH 333 0
DWIDTH 3 0
BBX 7 10 -2 -3
BITMAP
06
0C
3E
18
18
30
30
60
60
C0
ENDCHAR

STARTCHAR g
ENCODING 103
SWIDTH 500 0
DWIDTH 5 0
BBX 6 8 0 -3
BITMAP
3C
68
68
30
20
98
D8
70
ENDCHAR

STARTCHAR h
ENCODING 104
SWIDTH 556 0
DWIDTH 6 0
BBX 6 7 0 0
BITMAP
70
30
6C
7C
6C
D8
D8
ENDCHAR

STARTCHAR i
ENCODING 105
SWIDTH 333 0
DWIDTH 3 0
BBX 4 7 0 0
BITMAP
30
00
60
60
60
C0
C0
ENDCHAR

STARTCHAR j
ENCODING 106
SWIDTH 333 0
DWIDTH 3 0
BBX 6 10 -2 -3
BITMAP
0C
00
18
18
18
30
30
60
60
C0
ENDCHAR

STARTCHAR k
ENCODING 107
SWIDTH 556 0
DWIDTH 6 0
BBX 6 7 0 0
BITMAP
70
30
64
6C
78
D8
CC
ENDCHAR

STARTCHAR l
ENCODING 108
SWIDTH 333 0
DWIDTH 3 0
BBX 6 7 -1 0
BITMAP
38
18
30
30
30
60
70
ENDCHAR

STARTCHAR m
ENCODING 109
SWIDTH 833 0
DWIDTH 9 0
BBX 9 5 0 0
BITMAP
ED80
7F80
6D80
DB00
DB00
ENDCHAR

STARTCHAR n
ENCODING 110
SWIDTH 556 0
DWIDTH 6 0
BBX 6 5 0 0
BITMAP
EC
7C
6C
D8
D8
ENDCHAR

STARTCHAR o
ENCODING 111
SWIDTH 556 0
DWIDTH 6 0
BBX 6 5 0 0
BITMAP
38
6C
CC
D8
70
ENDCHAR

STARTCHAR p
ENCODING 112
SWIDTH 556 0
DWIDTH 5 0
BBX 7 8 -1 -3
BITMAP
7C
36
26
68
70
C0
C0
C0
ENDCHAR

STARTCHAR q
ENCODING 113
SWIDTH 537 0
DWIDTH 6 0
BBX 6 8 0 -3
BITMAP
3C
6C
4C
D8
D8
30
30
30
ENDCHAR

STARTCHAR r
ENCODING 114
SWIDTH 389 0
DWIDTH 4 0
BBX 5 5 0 0
BITMAP
68
78
60
C0
C0
ENDCHAR

STARTCHAR s
ENCODING 115
SWIDTH 444 0
DWIDTH 5 0
BBX 5 5 0 0
BITMAP
38
60
38
30
E0
ENDCHAR

STARTCHAR t
ENCODING 116
SWIDTH 389 0
DWIDTH 3 0
BBX 4 6 0 0
BITMAP
20
F0
60
60
C0
C0
ENDCHAR

STARTCHAR u
ENCODING 117
SWIDTH 556 0
DWIDTH 6 0
BBX 6 5 0 0
BITMAP
6C
6C
CC
D8
6C
ENDCHAR

STARTCHAR v
ENCODING 118
SWIDTH 556 0
DWIDTH 5 0
BBX 6 5 0 0
BITMAP
EC
6C
68
70
60
ENDCHAR

STARTCHAR w
ENCODING 119
SWIDTH 833 0
DWIDTH 8 0
BBX 9 5 0 0
BITMAP
ED80
6D80
6D00
7E00
6C00
ENDCHAR

STARTCHAR x
ENCODING 120
SWIDTH 500 0
DWIDTH 6 0
BBX 7 5 0 0
BITMAP
76
3C
18
78
DC
ENDCHAR

STARTCHAR y
ENCODING 121
SWIDTH 556 0
DWIDTH 6 0
BBX 6 8 0 -3
BITMAP
6C
6C
6C
78
30
20
E0
C0
ENDCHAR

STARTCHAR z
ENCODING 122
SWIDTH 500 0
DWIDTH 5 0
BBX 6 5 0 0
BITMAP
7C
4C
18
60
F8
ENDCHAR

STARTCHAR braceleft
ENCODING 123
SWIDTH 333 0
DWIDTH 4 0
BBX 5 9 1 -1
BITMAP
18
20
20
40
80
40
40
40
60
ENDCHAR

STARTCHAR bar
ENCODING 124
SWIDTH 606 0
DWIDTH 5 0
BBX 1 7 2 0
BITMAP
80
80
80
80
80
80
80
ENDCHAR

STARTCHAR braceright
ENCODING 125
SWIDTH 333 0
DWIDTH 5 0
BBX 5 9 0 -1
BITMAP
30
10
10
10
08
10
20
20
C0
ENDCHAR

STARTCHAR asciitilde
ENCODING 126
SWIDTH 606 0
DWIDTH 6 0
BBX 5 2 1 2
BITMAP
68
B0
ENDCHAR

STARTCHAR exclamdown
ENCODING 161
SWIDTH 333 0
DWIDTH 4 0
BBX 4 7 0 -2
BITMAP
30
00
20
60
60
C0
C0
ENDCHAR

STARTCHAR cent
ENCODING 162
SWIDTH 500 0
DWIDTH 5 0
BBX 6 9 0 -2
BITMAP
04
08
38
68
50
E0
F0
40
80
ENDCHAR

STARTCHAR sterling
ENCODING 163
SWIDTH 500 0
DWIDTH 5 0
BBX 6 7 0 0
BITMAP
1C
34
30
78
20
6C
F8
ENDCHAR

STARTCHAR currency
ENCODING 164
SWIDTH 500 0
DWIDTH 6 0
BBX 7 6 0 0
BITMAP
36
18
6C
6C
30
D8
ENDCHAR

STARTCHAR yen
ENCODING 165
SWIDTH 500 0
DWIDTH 5 0
BBX 6 7 1 0
BITMAP
64
28
F8
20
F8
40
E0
ENDCHAR

STARTCHAR brokenbar
ENCODING 166
SWIDTH 606 0
DWIDTH 5 0
BBX 1 7 2 0
BITMAP
80
80
80
00
80
80
80
ENDCHAR

STARTCHAR section
ENCODING 167
SWIDTH 556 0
DWIDTH 6 0
BBX 9 10 -1 -3
BITMAP
0700
0980
1800
1C00
2600
3200
1E00
1800
C800
7000
ENDCHAR

STARTCHAR dieresis
ENCODING 168
SWIDTH 333 0
DWIDTH 7 0
BBX 5 1 3 6
BITMAP
D8
ENDCHAR

STARTCHAR copyright
ENCODING 169
SWIDTH 747 0
DWIDTH 10 0
BBX 8 7 2 0
BITMAP
3E
41
9D
B1
9D
84
78
ENDCHAR

STARTCHAR ordfeminine
ENCODING 170
SWIDTH 333 0
DWIDTH 5 0
BBX 5 5 1 2
BITMAP
38
50
68
00
F0
ENDCHAR

STARTCHAR guillemotleft
ENCODING 171
SWIDTH 500 0
DWIDTH 6 0
BBX 6 3 1 1
BITMAP
6C
D8
6C
ENDCHAR

STARTCHAR logicalnot
ENCODING 172
SWIDTH 606 0
DWIDTH 6 0
BBX 5 3 1 1
BITMAP
F8
08
08
ENDCHAR

STARTCHAR hyphen
ENCODING 173
SWIDTH 389 0
DWIDTH 4 0
BBX 3 1 1 2
BITMAP
E0
ENDCHAR

STARTCHAR registered
ENCODING 174
SWIDTH 747 0
DWIDTH 10 0
BBX 8 7 2 0
BITMAP
3C
42
B9
B9
AD
84
78
ENDCHAR

STARTCHAR macron
ENCODING 175
SWIDTH 333 0
DWIDTH 4 0
BBX 4 1 3 6
BITMAP
F0
ENDCHAR

STARTCHAR degree
ENCODING 176
SWIDTH 400 0
DWIDTH 4 0
BBX 3 4 2 3
BITMAP
40
A0
A0
40
ENDCHAR

STARTCHAR plusminus
ENCODING 177
SWIDTH 606 0
DWIDTH 6 0
BBX 5 5 1 0
BITMAP
20
F8
20
00
F8
ENDCHAR

STARTCHAR twosuperior
ENCODING 178
SWIDTH 300 0
DWIDTH 3 0
BBX 3 4 1 3
BITMAP
60
A0
40
E0
ENDCHAR

STARTCHAR threesuperior
ENCODING 179
SWIDTH 300 0
DWIDTH 3 0
BBX 3 4 1 3
BITMAP
E0
40
20
C0
ENDCHAR

STARTCHAR acute
ENCODING 180
SWIDTH 333 0
DWIDTH 5 0
BBX 3 2 3 6
BITMAP
60
C0
ENDCHAR

STARTCHAR mu
ENCODING 181
SWIDTH 556 0
DWIDTH 6 0
BBX 7 8 -1 -3
BITMAP
36
36
66
6C
76
C0
C0
C0
ENDCHAR

STARTCHAR paragraph
ENCODING 182
SWIDTH 556 0
DWIDTH 9 0
BBX 10 10 0 -3
BITMAP
0FC0
1A80
3500
3500
1D00
0A00
0A00
1400
1400
3E00
ENDCHAR

STARTCHAR periodcentered
ENCODING 183
SWIDTH 250 0
DWIDTH 3 0
BBX 2 1 1 2
BITMAP
C0
ENDCHAR

STARTCHAR cedilla
ENCODING 184
SWIDTH 333 0
DWIDTH 4 0
BBX 3 3 0 -3
BITMAP
C0
60
C0
ENDCHAR

STARTCHAR onesuperior
ENCODING 185
SWIDTH 300 0
DWIDTH 3 0
BBX 3 4 1 3
BITMAP
C0
40
40
E0
ENDCHAR

STARTCHAR ordmasculine
ENCODING 186
SWIDTH 333 0
DWIDTH 5 0
BBX 5 5 1 2
BITMAP
30
48
30
00
F0
ENDCHAR

STARTCHAR guillemotright
ENCODING 187
SWIDTH 500 0
DWIDTH 6 0
BBX 7 3 0 1
BITMAP
6C
36
D8
ENDCHAR

STARTCHAR onequarter
ENCODING 188
SWIDTH 750 0
DWIDTH 8 0
BBX 7 7 1 0
BITMAP
C4
48
48
F4
2C
3E
48
ENDCHAR

STARTCHAR onehalf
ENCODING 189
SWIDTH 750 0
DWIDTH 8 0
BBX 7 7 1 0
BITMAP
C4
48
48
F6
2A
24
4E
ENDCHAR

STARTCHAR threequarters
ENCODING 190
SWIDTH 750 0
DWIDTH 8 0
BBX 7 7 1 0
BITMAP
E4
48
28
D4
2C
3E
48
ENDCHAR

STARTCHAR questiondown
ENCODING 191
SWIDTH 444 0
DWIDTH 6 0
BBX 6 7 0 -2
BITMAP
0C
00
08
30
60
D0
60
ENDCHAR

STARTCHAR Agrave
ENCODING 192
SWIDTH 722 0
DWIDTH 7 0
BBX 8 8 -1 0
BITMAP
06
03
00
0E
16
3E
46
EF
ENDCHAR

STARTCHAR Aacute
ENCODING 193
SWIDTH 722 0
DWIDTH 7 0
BBX 8 8 -1 0
BITMAP
03
06
00
0E
16
3E
46
EF
ENDCHAR

STARTCHAR Acircumflex
ENCODING 194
SWIDTH 722 0
DWIDTH 7 0
BBX 8 8 -1 0
BITMAP
06
0A
00
0E
16
3E
46
EF
ENDCHAR

STARTCHAR Atilde
ENCODING 195
SWIDTH 722 0
DWIDTH 7 0
BBX 9 8 -1 0
BITMAP
0680
0B00
0000
0E00
1600
3E00
4600
EF00
ENDCHAR

STARTCHAR Adieresis
ENCODING 196
SWIDTH 722 0
DWIDTH 7 0
BBX 8 7 -1 0
BITMAP
1B
00
0E
16
3E
46
EF
ENDCHAR

STARTCHAR Aring
ENCODING 197
SWIDTH 722 0
DWIDTH 7 0
BBX 8 8 -1 0
BITMAP
03
05
06
0E
16
3E
46
EF
ENDCHAR

STARTCHAR AE
ENCODING 198
SWIDTH 944 0
DWIDTH 11 0
BBX 12 7 0 0
BITMAP
0FF0
0590
0B00
13C0
3F00
4640
EFC0
ENDCHAR

STARTCHAR Ccedilla
ENCODING 199
SWIDTH 685 0
DWIDTH 7 0
BBX 7 10 1 -3
BITMAP
3E
62
C0
C0
C0
C4
78
30
18
30
ENDCHAR

STARTCHAR Egrave
ENCODING 200
SWIDTH 611 0
DWIDTH 7 0
BBX 8 8 0 0
BITMAP
0C
06
00
7F
31
3C
62
FE
ENDCHAR

STARTCHAR Eacute
ENCODING 201
SWIDTH 611 0
DWIDTH 7 0
BBX 8 8 0 0
BITMAP
06
0C
00
7F
31
3C
62
FE
ENDCHAR

STARTCHAR Ecircumflex
ENCODING 202
SWIDTH 611 0
DWIDTH 7 0
BBX 8 8 0 0
BITMAP
06
0A
00
7F
31
3C
62
FE
ENDCHAR

STARTCHAR Edieresis
ENCODING 203
SWIDTH 611 0
DWIDTH 7 0
BBX 8 7 0 0
BITMAP
1B
00
7F
31
3C
62
FE
ENDCHAR

STARTCHAR Igrave
ENCODING 204
SWIDTH 389 0
DWIDTH 4 0
BBX 5 8 0 0
BITMAP
30
18
00
78
30
20
60
F0
ENDCHAR

STARTCHAR Iacute
ENCODING 205
SWIDTH 389 0
DWIDTH 4 0
BBX 5 8 0 0
BITMAP
18
30
00
78
30
20
60
F0
ENDCHAR

STARTCHAR Icircumflex
ENCODING 206
SWIDTH 389 0
DWIDTH 4 0
BBX 5 8 0 0
BITMAP
18
28
00
78
30
20
60
F0
ENDCHAR

STARTCHAR Idieresis
ENCODING 207
SWIDTH 389 0
DWIDTH 4 0
BBX 6 7 0 0
BITMAP
6C
00
78
30
20
60
F0
ENDCHAR

STARTCHAR Eth
ENCODING 208
SWIDTH 778 0
DWIDTH 8 0
BBX 9 7 0 0
BITMAP
3F00
1980
1180
7B00
3300
6600
FC00
ENDCHAR

STARTCHAR Ntilde
ENCODING 209
SWIDTH 778 0
DWIDTH 8 0
BBX 9 8 0 0
BITMAP
0680
0B00
0000
6380
3100
3A00
4E00
E600
ENDCHAR

STARTCHAR Ograve
ENCODING 210
SWIDTH 833 0
DWIDTH 8 0
BBX 7 8 1 0
BITMAP
18
0C
00
3C
66
C6
CC
78
ENDCHAR

STARTCHAR Oacute
ENCODING 211
SWIDTH 833 0
DWIDTH 8 0
BBX 7 8 1 0
BITMAP
06
0C
00
3C
66
C6
CC
78
ENDCHAR

STARTCHAR Ocircumflex
ENCODING 212
SWIDTH 833 0
DWIDTH 8 0
BBX 7 8 1 0
BITMAP
06
0A
00
3C
66
C6
CC
78
ENDCHAR

STARTCHAR Otilde
ENCODING 213
SWIDTH 833 0
DWIDTH 8 0
BBX 8 8 1 0
BITMAP
0D
16
00
3C
66
C6
CC
78
ENDCHAR

STARTCHAR Odieresis
ENCODING 214
SWIDTH 833 0
DWIDTH 8 0
BBX 7 7 1 0
BITMAP
36
00
3C
66
C6
CC
78
ENDCHAR

STARTCHAR multiply
ENCODING 215
SWIDTH 606 0
DWIDTH 6 0
BBX 6 5 0 0
BITMAP
CC
78
30
78
CC
ENDCHAR

STARTCHAR Oslash
ENCODING 216
SWIDTH 833 0
DWIDTH 8 0
BBX 9 10 0 -2
BITMAP
0080
0F00
3180
3780
6B00
7300
6600
3C00
4000
8000
ENDCHAR

STARTCHAR Ugrave
ENCODING 217
SWIDTH 778 0
DWIDTH 8 0
BBX 7 8 2 0
BITMAP
18
0C
00
EE
66
CC
D8
6C
ENDCHAR

STARTCHAR Uacute
ENCODING 218
SWIDTH 778 0
DWIDTH 8 0
BBX 7 8 2 0
BITMAP
0C
18
00
EE
66
CC
D8
6C
ENDCHAR

STARTCHAR Ucircumflex
ENCODING 219
SWIDTH 778 0
DWIDTH 8 0
BBX 7 8 2 0
BITMAP
0C
14
00
EE
66
CC
D8
6C
ENDCHAR

STARTCHAR Udieresis
ENCODING 220
SWIDTH 778 0
DWIDTH 8 0
BBX 7 7 2 0
BITMAP
36
00
EE
66
CC
D8
6C
ENDCHAR

STARTCHAR Yacute
ENCODING 221
SWIDTH 611 0
DWIDTH 8 0
BBX 7 8 2 0
BITMAP
0C
18
00
E6
68
30
60
F0
ENDCHAR

STARTCHAR Thorn
ENCODING 222
SWIDTH 667 0
DWIDTH 7 0
BBX 8 7 0 0
BITMAP
38
1E
33
36
3C
60
F0
ENDCHAR

STARTCHAR germandbls
ENCODING 223
SWIDTH 556 0
DWIDTH 6 0
BBX 9 10 -2 -3
BITMAP
0700
0D80
3B00
1C00
1B00
3700
3C00
6000
6000
C000
ENDCHAR

STARTCHAR agrave
ENCODING 224
SWIDTH 556 0
DWIDTH 6 0
BBX 6 8 0 0
BITMAP
18
0C
00
1C
2C
CC
D8
6C
ENDCHAR

STARTCHAR aacute
ENCODING 225
SWIDTH 556 0
DWIDTH 6 0
BBX 7 8 0 0
BITMAP
06
0C
00
1C
6C
CC
D8
6C
ENDCHAR

STARTCHAR acircumflex
ENCODING 226
SWIDTH 556 0
DWIDTH 6 0
BBX 7 8 0 0
BITMAP
06
0A
00
1C
2C
CC
D8
6C
ENDCHAR

STARTCHAR atilde
ENCODING 227
SWIDTH 556 0
DWIDTH 6 0
BBX 8 8 0 0
BITMAP
0D
16
00
1C
2C
CC
D8
6C
ENDCHAR

STARTCHAR adieresis
ENCODING 228
SWIDTH 556 0
DWIDTH 6 0
BBX 7 7 0 0
BITMAP
36
00
1C
2C
CC
D8
6C
ENDCHAR

STARTCHAR aring
ENCODING 229
SWIDTH 556 0
DWIDTH 6 0
BBX 7 8 0 0
BITMAP
06
0A
0C
1C
2C
CC
D8
6C
ENDCHAR

STARTCHAR ae
ENCODING 230
SWIDTH 738 0
DWIDTH 8 0
BBX 8 5 0 0
BITMAP
3B
0D
7E
98
DE
ENDCHAR

STARTCHAR ccedilla
ENCODING 231
SWIDTH 444 0
DWIDTH 5 0
BBX 5 8 0 -3
BITMAP
38
68
40
D0
E0
60
30
60
ENDCHAR

STARTCHAR egrave
ENCODING 232
SWIDTH 444 0
DWIDTH 5 0
BBX 5 8 0 0
BITMAP
30
18
00
38
68
70
C0
E0
ENDCHAR

STARTCHAR eacute
ENCODING 233
SWIDTH 444 0
DWIDTH 5 0
BBX 6 8 0 0
BITMAP
0C
18
00
38
68
70
C0
E0
ENDCHAR

STARTCHAR ecircumflex
ENCODING 234
SWIDTH 444 0
DWIDTH 5 0
BBX 6 8 0 0
BITMAP
0C
14
00
38
68
70
C0
E0
ENDCHAR

STARTCHAR edieresis
ENCODING 235
SWIDTH 444 0
DWIDTH 5 0
BBX 7 7 0 0
BITMAP
36
00
38
68
70
C0
E0
ENDCHAR

STARTCHAR igrave
ENCODING 236
SWIDTH 333 0
DWIDTH 3 0
BBX 4 8 0 0
BITMAP
60
30
00
60
60
60
C0
C0
ENDCHAR

STARTCHAR iacute
ENCODING 237
SWIDTH 333 0
DWIDTH 3 0
BBX 5 8 0 0
BITMAP
18
30
00
60
60
60
C0
C0
ENDCHAR

STARTCHAR icircumflex
ENCODING 238
SWIDTH 333 0
DWIDTH 3 0
BBX 4 8 0 0
BITMAP
30
50
00
60
60
60
C0
C0
ENDCHAR

STARTCHAR idieresis
ENCODING 239
SWIDTH 333 0
DWIDTH 3 0
BBX 6 7 0 0
BITMAP
6C
00
60
60
60
C0
C0
ENDCHAR

STARTCHAR eth
ENCODING 240
SWIDTH 556 0
DWIDTH 6 0
BBX 6 8 0 0
BITMAP
34
18
28
3C
6C
CC
D8
70
ENDCHAR

STARTCHAR ntilde
ENCODING 241
SWIDTH 556 0
DWIDTH 6 0
BBX 7 8 0 0
BITMAP
1A
2C
00
EC
7C
6C
D8
D8
ENDCHAR

STARTCHAR ograve
ENCODING 242
SWIDTH 556 0
DWIDTH 6 0
BBX 6 8 0 0
BITMAP
30
18
00
38
6C
CC
D8
70
ENDCHAR

STARTCHAR oacute
ENCODING 243
SWIDTH 556 0
DWIDTH 6 0
BBX 6 8 0 0
BITMAP
0C
18
00
38
6C
CC
D8
70
ENDCHAR

STARTCHAR ocircumflex
ENCODING 244
SWIDTH 556 0
DWIDTH 6 0
BBX 6 8 0 0
BITMAP
0C
14
00
38
6C
CC
D8
70
ENDCHAR

STARTCHAR otilde
ENCODING 245
SWIDTH 556 0
DWIDTH 6 0
BBX 7 8 0 0
BITMAP
1A
2C
00
38
6C
CC
D8
70
ENDCHAR

STARTCHAR odieresis
ENCODING 246
SWIDTH 556 0
DWIDTH 6 0
BBX 6 7 0 0
BITMAP
6C
00
38
6C
CC
D8
70
ENDCHAR

STARTCHAR divide
ENCODING 247
SWIDTH 606 0
DWIDTH 6 0
BBX 5 5 1 0
BITMAP
20
00
F8
00
20
ENDCHAR

STARTCHAR oslash
ENCODING 248
SWIDTH 556 0
DWIDTH 6 0
BBX 8 5 -1 0
BITMAP
1D
36
7E
6C
B8
ENDCHAR

STARTCHAR ugrave
ENCODING 249
SWIDTH 556 0
DWIDTH 6 0
BBX 6 8 0 0
BITMAP
30
18
00
6C
6C
CC
D8
6C
ENDCHAR

STARTCHAR uacute
ENCODING 250
SWIDTH 556 0
DWIDTH 6 0
BBX 6 8 0 0
BITMAP
0C
18
00
6C
6C
CC
D8
6C
ENDCHAR

STARTCHAR ucircumflex
ENCODING 251
SWIDTH 556 0
DWIDTH 6 0
BBX 6 8 0 0
BITMAP
0C
14
00
6C
6C
CC
D8
6C
ENDCHAR

STARTCHAR udieresis
ENCODING 252
SWIDTH 556 0
DWIDTH 6 0
BBX 8 7 0 0
BITMAP
36
00
6C
6C
6C
D8
6C
ENDCHAR

STARTCHAR yacute
ENCODING 253
SWIDTH 556 0
DWIDTH 6 0
BBX 6 11 0 -3
BITMAP
0C
18
00
6C
6C
6C
78
30
20
E0
C0
ENDCHAR

STARTCHAR thorn
ENCODING 254
SWIDTH 556 0
DWIDTH 5 0
BBX 7 10 -1 -3
BITMAP
38
18
1C
36
26
68
70
C0
C0
C0
ENDCHAR

STARTCHAR ydieresis
ENCODING 255
SWIDTH 556 0
DWIDTH 6 0
BBX 6 10 0 -3
BITMAP
6C
00
6C
6C
6C
78
30
20
E0
C0
ENDCHAR
ENDFONT
